<svg width="24" height="24" viewBox="0 0 24 24" fill="none" xmlns="http://www.w3.org/2000/svg">
<mask id="mask0_25_351" style="mask-type:alpha" maskUnits="userSpaceOnUse" x="0" y="0" width="24" height="24">
<rect width="24" height="24" fill="#C4C4C4"/>
</mask>
<g mask="url(#mask0_25_351)">
<path d="M12 11C12.55 11 13.021 10.804 13.413 10.412C13.8043 10.0207 14 9.55 14 9C14 8.45 13.8043 7.979 13.413 7.587C13.021 7.19567 12.55 7 12 7C11.45 7 10.9793 7.19567 10.588 7.587C10.196 7.979 10 8.45 10 9C10 9.55 10.196 10.0207 10.588 10.412C10.9793 10.804 11.45 11 12 11ZM12 13C10.9 13 9.95833 12.6083 9.175 11.825C8.39167 11.0417 8 10.1 8 9C8 7.9 8.39167 6.95833 9.175 6.175C9.95833 5.39167 10.9 5 12 5C13.1 5 14.0417 5.39167 14.825 6.175C15.6083 6.95833 16 7.9 16 9C16 10.1 15.6083 11.0417 14.825 11.825C14.0417 12.6083 13.1 13 12 13ZM12 24C10.35 24 8.796 23.6873 7.338 23.062C5.87933 22.4373 4.60433 21.5793 3.513 20.488C2.421 19.396 1.56267 18.121 0.938 16.663C0.312667 15.2043 0 13.65 0 12C0 10.35 0.312667 8.79567 0.938 7.337C1.56267 5.879 2.421 4.604 3.513 3.512C4.60433 2.42067 5.87933 1.56267 7.338 0.938C8.796 0.312667 10.35 0 12 0C13.65 0 15.2043 0.312667 16.663 0.938C18.121 1.56267 19.396 2.42067 20.488 3.512C21.5793 4.604 22.4373 5.879 23.062 7.337C23.6873 8.79567 24 10.35 24 12C24 13.65 23.6873 15.2043 23.062 16.663C22.4373 18.121 21.5793 19.396 20.488 20.488C19.396 21.5793 18.121 22.4373 16.663 23.062C15.2043 23.6873 13.65 24 12 24ZM12 22C13.2 22 14.325 21.8083 15.375 21.425C16.425 21.0417 17.3833 20.5 18.25 19.8C17.7 19.1833 16.8917 18.646 15.825 18.188C14.7583 17.7293 13.4833 17.5 12 17.5C10.5167 17.5 9.24167 17.7293 8.175 18.188C7.10833 18.646 6.3 19.1833 5.75 19.8C6.61667 20.5 7.575 21.0417 8.625 21.425C9.675 21.8083 10.8 22 12 22ZM4.3 18.4C5.1 17.5333 6.175 16.8333 7.525 16.3C8.875 15.7667 10.3667 15.5 12 15.5C13.6333 15.5 15.121 15.7667 16.463 16.3C17.8043 16.8333 18.875 17.5333 19.675 18.4C20.4083 17.5167 20.9793 16.5333 21.388 15.45C21.796 14.3667 22 13.2167 22 12C22 10.6167 21.7373 9.321 21.212 8.113C20.6873 6.90433 19.9707 5.846 19.062 4.938C18.154 4.02933 17.0957 3.31233 15.887 2.787C14.679 2.26233 13.3833 2 12 2C10.6333 2 9.34167 2.26233 8.125 2.787C6.90833 3.31233 5.846 4.02933 4.938 4.938C4.02933 5.846 3.31267 6.90433 2.788 8.113C2.26267 9.321 2 10.6167 2 12C2 13.2167 2.2 14.371 2.6 15.463C3 16.5543 3.56667 17.5333 4.3 18.4Z" fill="#222831"/>
</g>
</svg>
