<svg width="25" height="24" viewBox="0 0 25 24" fill="none" xmlns="http://www.w3.org/2000/svg">
<path d="M24.9952 12C24.9952 17.9897 20.6068 22.9542 14.8702 23.8542V15.4688H17.6663L18.1984 12H14.8702V9.74906C14.8702 8.79984 15.3352 7.875 16.8259 7.875H18.339V4.92188C18.339 4.92188 16.9656 4.6875 15.6526 4.6875C12.9118 4.6875 11.1202 6.34875 11.1202 9.35625V12H8.07336V15.4688H11.1202V23.8542C5.38368 22.9542 0.995239 17.9897 0.995239 12C0.995239 5.37281 6.36805 0 12.9952 0C19.6224 0 24.9952 5.37281 24.9952 12Z" fill="#1877F2"/>
<path d="M17.6663 15.4688L18.1984 12H14.8702V9.74902C14.8702 8.80003 15.3351 7.875 16.8258 7.875H18.339V4.92188C18.339 4.92188 16.9657 4.6875 15.6528 4.6875C12.9118 4.6875 11.1202 6.34875 11.1202 9.35625V12H8.07336V15.4688H11.1202V23.8542C11.7312 23.95 12.3574 24 12.9952 24C13.6331 24 14.2593 23.95 14.8702 23.8542V15.4688H17.6663Z" fill="white"/>
</svg>
