<svg width="25" height="24" viewBox="0 0 25 24" fill="none" xmlns="http://www.w3.org/2000/svg">
<g clip-path="url(#clip0_35_1239)">
<path d="M22.8357 6.37513C22.1551 5.14388 21.4485 4.39837 21.353 4.27806C19.22 1.87273 16.1069 0.356262 12.6391 0.356262C9.96584 0.356262 7.50475 1.25677 5.54061 2.7699C2.77543 4.90016 2.0947 8.07326 2.0947 11.8286C2.0947 18.2593 6.35367 22.5681 12.7843 22.5681C17.2884 22.5681 21.1998 21.06 23.1331 17.0514L23.1325 17.0517C24.7354 13.7289 24.6869 9.7289 22.8357 6.37513Z" fill="#B930D6"/>
<path d="M23.9727 14.6708C21.982 16.2005 19.506 17.0808 16.8774 17.0808C10.4468 17.0808 5.23368 11.8678 5.23368 5.43708C5.23368 4.51977 5.34028 3.62714 5.54114 2.77057C2.77596 4.90083 0.995361 8.24465 0.995361 12C0.995361 18.4307 6.20845 23.6438 12.6391 23.6438C17.1431 23.6438 21.1998 21.0601 23.133 17.0514L23.1325 17.0518C23.5007 16.2885 23.7806 15.4894 23.9727 14.6708Z" fill="#8D1BA5"/>
<path d="M21.7376 6.38801H19.4372C19.3321 6.38801 19.2313 6.34626 19.157 6.27195C19.0827 6.19763 19.041 6.09684 19.041 5.99174V5.47403C19.041 5.42199 19.0512 5.37046 19.0711 5.32238C19.091 5.27431 19.1202 5.23062 19.157 5.19382C19.1938 5.15703 19.2375 5.12784 19.2856 5.10792C19.3337 5.08801 19.3852 5.07776 19.4372 5.07776H21.7376C21.7896 5.07776 21.8412 5.08801 21.8892 5.10792C21.9373 5.12784 21.981 5.15703 22.0178 5.19382C22.0546 5.23062 22.0838 5.27431 22.1037 5.32238C22.1236 5.37046 22.1339 5.42199 22.1339 5.47403V5.99174C22.1339 6.09684 22.0921 6.19763 22.0178 6.27195C21.9435 6.34626 21.8427 6.38801 21.7376 6.38801Z" fill="#05CDFF"/>
<path d="M7.79879 6.38801H5.49842C5.39332 6.38801 5.29252 6.34626 5.21821 6.27195C5.14389 6.19763 5.10214 6.09684 5.10214 5.99174V5.47403C5.10214 5.42199 5.11239 5.37046 5.13231 5.32238C5.15222 5.27431 5.18141 5.23062 5.21821 5.19382C5.25501 5.15703 5.29869 5.12784 5.34677 5.10792C5.39485 5.08801 5.44638 5.07776 5.49842 5.07776H7.79879C7.85083 5.07776 7.90236 5.08801 7.95044 5.10792C7.99851 5.12784 8.0422 5.15703 8.079 5.19382C8.11579 5.23062 8.14498 5.27431 8.1649 5.32238C8.18481 5.37046 8.19506 5.42199 8.19506 5.47403V5.99174C8.19506 6.09684 8.15331 6.19763 8.079 6.27195C8.00468 6.34626 7.90389 6.38801 7.79879 6.38801Z" fill="#05CDFF"/>
<path d="M24.7684 12.8069C24.7566 12.7683 24.7444 12.7297 24.7318 12.6912L22.8653 6.98857C22.6131 6.21795 21.894 5.69672 21.0832 5.69672H19.6947C19.417 5.69672 19.1449 5.77558 18.9103 5.92413C18.6756 6.07267 18.4879 6.2848 18.369 6.53583H8.76766C8.64879 6.2848 8.46109 6.07267 8.2264 5.92413C7.99171 5.77558 7.71967 5.69672 7.44191 5.69672H6.99166L3.48294 14.2706L7.30964 17.6229L7.31574 17.6211L8.44893 13.6337H8.47376C8.43708 13.5376 8.41593 13.4362 8.4111 13.3334C8.38979 12.8579 8.83103 12.4529 9.29156 12.4529H20.764C20.7684 12.4529 20.7727 12.4535 20.7771 12.4536C20.7796 12.4534 20.7821 12.453 20.7846 12.4529C21.2601 12.4316 21.6651 12.8729 21.6651 13.3334V17.8457C23.9391 17.434 25.4701 15.113 24.7684 12.8069Z" fill="#222831"/>
<path d="M7.25125 17.8481L7.36259 17.4563C6.16589 16.6496 5.35438 15.416 5.05884 14.0475C4.89046 13.2677 5.48633 12.5355 6.28399 12.5225L6.31502 12.5218C7.56754 12.4857 8.59784 11.4772 8.65877 10.2257C8.69867 9.40589 8.33009 8.67037 7.73887 8.20477C6.98693 7.61257 6.69519 6.60686 6.99162 5.69678H6.01047C5.19863 5.69678 4.47903 6.21918 4.22757 6.99107L2.37064 12.6913C2.3582 12.7292 2.34619 12.7672 2.33459 12.8052C1.56927 15.3173 3.48567 17.8481 6.11172 17.8481H7.25125Z" fill="#222831"/>
<path d="M22.9635 17.2857L22.1113 14.2868C21.855 13.385 22.0554 12.4052 22.6747 11.7013C23.0712 11.2507 23.3026 10.6514 23.2744 9.99783C23.2206 8.74987 22.202 7.73642 20.9538 7.68859C19.5751 7.63578 18.4408 8.73781 18.4408 10.1048C18.4408 10.1131 18.4408 10.1214 18.4409 10.1298C18.4519 11.2175 17.5846 12.1095 16.4969 12.1095H10.7037L10.8547 13.6336H18.6536L20.1245 18.8098C20.3564 19.4345 21.0644 19.7372 21.6763 19.4734C22.4779 19.1277 23.1579 18.6122 23.6908 17.9858C23.367 17.8792 23.092 17.632 22.9635 17.2857Z" fill="#222831"/>
<path d="M7.48036 16.9838L7.47224 17.0124C7.24035 17.6371 6.5323 17.9399 5.92047 17.676C3.60996 16.6796 2.30675 14.274 2.64134 11.8602L2.37063 12.6912C1.48111 15.402 2.80638 18.3436 5.42614 19.4734C6.03801 19.7373 6.74606 19.4345 6.9779 18.8098L7.49664 16.9845C7.49121 16.9843 7.48578 16.9841 7.48036 16.9838Z" fill="#222831"/>
<path d="M19.6097 16.9838L19.6178 17.0124C19.8497 17.6371 20.5578 17.9399 21.1696 17.676C23.4801 16.6796 24.7833 14.274 24.4487 11.8602L24.7194 12.6912C25.6089 15.402 24.2837 18.3436 21.6639 19.4734C21.052 19.7373 20.344 19.4345 20.1121 18.8098C20.1121 18.8098 19.6043 16.9841 19.6097 16.9838Z" fill="#222831"/>
<path d="M9.33041 11.0649C8.82828 11.0642 8.34313 11.2467 7.96594 11.5781L9.33041 15.2056C10.4738 15.2056 11.4007 14.2786 11.4007 13.1353C11.4007 11.9919 10.4738 11.0649 9.33041 11.0649Z" fill="#F73C9A"/>
<path d="M9.83983 14.7094C10.4015 14.4974 10.7961 13.9452 10.7717 13.3039C10.744 12.5715 10.1579 11.9682 9.42652 11.9208C9.11042 11.9003 8.81446 11.9817 8.56825 12.1354C8.38819 12.2478 8.17376 12.0429 8.27642 11.8571L8.28619 11.8397C8.4033 11.6324 8.14499 11.4214 7.96605 11.5783C7.51716 11.9719 7.23993 12.5565 7.26128 13.2053C7.29705 14.2922 8.18954 15.1775 9.27673 15.205C9.49125 15.2105 9.69858 15.1832 9.89414 15.128C10.0081 15.0958 9.99581 14.9293 9.87799 14.9174L9.86757 14.9163C9.75655 14.9044 9.73538 14.7488 9.83983 14.7094Z" fill="#E0248B"/>
<path d="M9.33042 14.5777C10.127 14.5777 10.7728 13.9319 10.7728 13.1353C10.7728 12.3387 10.127 11.6929 9.33042 11.6929C8.53381 11.6929 7.88803 12.3387 7.88803 13.1353C7.88803 13.9319 8.53381 14.5777 9.33042 14.5777Z" fill="#222831"/>
<path d="M9.33042 14.2706C9.95746 14.2706 10.4658 13.7623 10.4658 13.1353C10.4658 12.5083 9.95746 11.9999 9.33042 11.9999C8.70338 11.9999 8.19507 12.5083 8.19507 13.1353C8.19507 13.7623 8.70338 14.2706 9.33042 14.2706Z" fill="#594D5E"/>
<path d="M9.33042 13.8435C9.72154 13.8435 10.0386 13.5264 10.0386 13.1353C10.0386 12.7442 9.72154 12.4271 9.33042 12.4271C8.93929 12.4271 8.62222 12.7442 8.62222 13.1353C8.62222 13.5264 8.93929 13.8435 9.33042 13.8435Z" fill="#222831"/>
<path d="M17.5985 11.0649C17.0964 11.0642 16.6113 11.2467 16.2341 11.5781L17.5985 15.2056C18.742 15.2056 19.6689 14.2786 19.6689 13.1353C19.6689 11.9919 18.7419 11.0649 17.5985 11.0649Z" fill="#F73C9A"/>
<path d="M18.1079 14.7094C18.6695 14.4974 19.0642 13.9452 19.0398 13.3039C19.012 12.5715 18.426 11.9682 17.6946 11.9208C17.3785 11.9003 17.0825 11.9817 16.8363 12.1354C16.6563 12.2478 16.4418 12.0429 16.5445 11.8571L16.5543 11.8397C16.6714 11.6324 16.4131 11.4214 16.2341 11.5783C15.7852 11.9719 15.508 12.5565 15.5293 13.2053C15.5651 14.2922 16.4576 15.1775 17.5448 15.205C17.7593 15.2105 17.9666 15.1832 18.1622 15.128C18.2762 15.0958 18.2639 14.9293 18.1461 14.9174L18.1356 14.9163C18.0247 14.9044 18.0035 14.7488 18.1079 14.7094Z" fill="#E0248B"/>
<path d="M17.5986 14.5777C18.3952 14.5777 19.0409 13.9319 19.0409 13.1353C19.0409 12.3387 18.3952 11.6929 17.5986 11.6929C16.8019 11.6929 16.1562 12.3387 16.1562 13.1353C16.1562 13.9319 16.8019 14.5777 17.5986 14.5777Z" fill="#222831"/>
<path d="M17.5985 14.2706C18.2256 14.2706 18.7339 13.7623 18.7339 13.1353C18.7339 12.5083 18.2256 11.9999 17.5985 11.9999C16.9715 11.9999 16.4632 12.5083 16.4632 13.1353C16.4632 13.7623 16.9715 14.2706 17.5985 14.2706Z" fill="#594D5E"/>
<path d="M17.5985 13.8435C17.9897 13.8435 18.3067 13.5264 18.3067 13.1353C18.3067 12.7442 17.9897 12.4271 17.5985 12.4271C17.2074 12.4271 16.8904 12.7442 16.8904 13.1353C16.8904 13.5264 17.2074 13.8435 17.5985 13.8435Z" fill="#222831"/>
<path d="M6.24334 12.0108C7.57874 12.0108 8.6613 10.9283 8.6613 9.59289C8.6613 8.25748 7.57874 7.17493 6.24334 7.17493C4.90794 7.17493 3.82538 8.25748 3.82538 9.59289C3.82538 10.9283 4.90794 12.0108 6.24334 12.0108Z" fill="#222831"/>
<path d="M20.8583 12.0108C22.1937 12.0108 23.2763 10.9283 23.2763 9.59289C23.2763 8.25748 22.1937 7.17493 20.8583 7.17493C19.5229 7.17493 18.4404 8.25748 18.4404 9.59289C18.4404 10.9283 19.5229 12.0108 20.8583 12.0108Z" fill="#222831"/>
<path d="M16.5498 10.889H10.6178C10.3256 10.889 10.0887 10.6521 10.0887 10.3599V7.14381C10.0887 6.85161 10.3256 6.61475 10.6178 6.61475H16.5498C16.842 6.61475 17.0789 6.85161 17.0789 7.14381V10.3599C17.0789 10.6521 16.842 10.889 16.5498 10.889Z" fill="#222831"/>
<path d="M9.13038 8.97449C9.0179 8.97449 8.91002 8.92981 8.83049 8.85027C8.75095 8.77074 8.70627 8.66286 8.70627 8.55038V7.92936C8.70627 7.81688 8.75095 7.709 8.83049 7.62947C8.91002 7.54993 9.0179 7.50525 9.13038 7.50525C9.24286 7.50525 9.35073 7.54993 9.43027 7.62947C9.5098 7.709 9.55449 7.81688 9.55449 7.92936V8.55038C9.55447 8.66286 9.50979 8.77073 9.43025 8.85026C9.35072 8.92979 9.24285 8.97448 9.13038 8.97449Z" fill="#222831"/>
<path d="M17.9777 8.8962C17.8652 8.8962 17.7574 8.85151 17.6778 8.77198C17.5983 8.69244 17.5536 8.58457 17.5536 8.47209V7.85111C17.5536 7.73863 17.5983 7.63076 17.6778 7.55122C17.7574 7.47169 17.8652 7.427 17.9777 7.427C18.0902 7.427 18.1981 7.47169 18.2776 7.55122C18.3572 7.63076 18.4018 7.73863 18.4018 7.85111V8.47209C18.4018 8.58457 18.3572 8.69244 18.2776 8.77198C18.1981 8.85151 18.0902 8.8962 17.9777 8.8962Z" fill="#222831"/>
<path d="M16.5498 10.4396H10.6178C10.3256 10.4396 10.0887 10.2027 10.0887 9.9105V6.69441C10.0887 6.40221 10.3256 6.16534 10.6178 6.16534H16.5498C16.842 6.16534 17.0789 6.40221 17.0789 6.69441V9.9105C17.0789 10.2027 16.842 10.4396 16.5498 10.4396Z" fill="#222831"/>
<path d="M11.1573 7.26483H15.9987" stroke="#5AB4FF" stroke-width="5.75204" stroke-miterlimit="10" stroke-linecap="round"/>
<path d="M9.13038 8.52509C9.0179 8.52509 8.91002 8.48041 8.83049 8.40087C8.75095 8.32134 8.70627 8.21346 8.70627 8.10098V7.47996C8.70627 7.36748 8.75095 7.2596 8.83049 7.18007C8.91002 7.10053 9.0179 7.05585 9.13038 7.05585C9.24286 7.05585 9.35073 7.10053 9.43027 7.18007C9.5098 7.2596 9.55449 7.36748 9.55449 7.47996V8.10098C9.55447 8.21346 9.50979 8.32132 9.43025 8.40086C9.35072 8.48039 9.24285 8.52508 9.13038 8.52509Z" fill="#222831"/>
<path d="M17.9777 8.44684C17.8652 8.44684 17.7574 8.40216 17.6778 8.32262C17.5983 8.24309 17.5536 8.13521 17.5536 8.02273V7.40171C17.5536 7.28923 17.5983 7.18135 17.6778 7.10182C17.7574 7.02228 17.8652 6.9776 17.9777 6.9776C18.0902 6.9776 18.1981 7.02228 18.2776 7.10182C18.3572 7.18135 18.4018 7.28923 18.4018 7.40171V8.02273C18.4018 8.13521 18.3572 8.24309 18.2776 8.32262C18.1981 8.40216 18.0902 8.44684 17.9777 8.44684Z" fill="#222831"/>
<path d="M20.8583 9.10943C21.2042 9.10943 21.4845 8.82908 21.4845 8.48324C21.4845 8.13741 21.2042 7.85706 20.8583 7.85706C20.5125 7.85706 20.2321 8.13741 20.2321 8.48324C20.2321 8.82908 20.5125 9.10943 20.8583 9.10943Z" fill="#FFC305"/>
<path d="M20.8583 11.3289C21.2042 11.3289 21.4845 11.0485 21.4845 10.7027C21.4845 10.3568 21.2042 10.0765 20.8583 10.0765C20.5125 10.0765 20.2321 10.3568 20.2321 10.7027C20.2321 11.0485 20.5125 11.3289 20.8583 11.3289Z" fill="#BE5AB9"/>
<path d="M21.968 10.2191C22.3138 10.2191 22.5942 9.93876 22.5942 9.59292C22.5942 9.24709 22.3138 8.96674 21.968 8.96674C21.6222 8.96674 21.3418 9.24709 21.3418 9.59292C21.3418 9.93876 21.6222 10.2191 21.968 10.2191Z" fill="#F73C9A"/>
<path d="M19.7487 10.2191C20.0945 10.2191 20.3748 9.93876 20.3748 9.59292C20.3748 9.24709 20.0945 8.96674 19.7487 8.96674C19.4028 8.96674 19.1225 9.24709 19.1225 9.59292C19.1225 9.93876 19.4028 10.2191 19.7487 10.2191Z" fill="#5AB4FF"/>
<path d="M6.23807 9.10943C6.5839 9.10943 6.86425 8.82908 6.86425 8.48324C6.86425 8.13741 6.5839 7.85706 6.23807 7.85706C5.89223 7.85706 5.61188 8.13741 5.61188 8.48324C5.61188 8.82908 5.89223 9.10943 6.23807 9.10943Z" fill="#FFC305"/>
<path d="M6.23807 11.3289C6.5839 11.3289 6.86425 11.0485 6.86425 10.7027C6.86425 10.3568 6.5839 10.0765 6.23807 10.0765C5.89223 10.0765 5.61188 10.3568 5.61188 10.7027C5.61188 11.0485 5.89223 11.3289 6.23807 11.3289Z" fill="#BE5AB9"/>
<path d="M7.34775 10.2191C7.69358 10.2191 7.97393 9.93876 7.97393 9.59292C7.97393 9.24709 7.69358 8.96674 7.34775 8.96674C7.00191 8.96674 6.72156 9.24709 6.72156 9.59292C6.72156 9.93876 7.00191 10.2191 7.34775 10.2191Z" fill="#F73C9A"/>
<path d="M5.12835 10.2191C5.47419 10.2191 5.75454 9.93876 5.75454 9.59292C5.75454 9.24709 5.47419 8.96674 5.12835 8.96674C4.78252 8.96674 4.50217 9.24709 4.50217 9.59292C4.50217 9.93876 4.78252 10.2191 5.12835 10.2191Z" fill="#5AB4FF"/>
</g>
<defs>
<clipPath id="clip0_35_1239">
<rect width="24" height="24" fill="white" transform="translate(0.995361)"/>
</clipPath>
</defs>
</svg>
