<svg width="25" height="24" viewBox="0 0 25 24" fill="none" xmlns="http://www.w3.org/2000/svg">
<path d="M24.0892 9.91355L14.2998 9.91309C13.8675 9.91309 13.5171 10.2634 13.5171 10.6957V13.823C13.5171 14.2552 13.8675 14.6056 14.2997 14.6056H19.8125C19.2089 16.1722 18.0822 17.4842 16.6447 18.3178L18.9954 22.387C22.7661 20.2062 24.9954 16.3799 24.9954 12.0965C24.9954 11.4866 24.9504 11.0506 24.8605 10.5597C24.7921 10.1867 24.4683 9.91355 24.0892 9.91355Z" fill="#167EE6"/>
<path d="M12.9954 19.3043C10.2975 19.3043 7.94232 17.8303 6.6774 15.649L2.60837 17.9944C4.67907 21.5832 8.55816 24 12.9954 24C15.1721 24 17.226 23.4139 18.9954 22.3925V22.387L16.6447 18.3177C15.5695 18.9414 14.3252 19.3043 12.9954 19.3043Z" fill="#12B347"/>
<path d="M18.9954 22.3925V22.387L16.6447 18.3177C15.5695 18.9413 14.3253 19.3043 12.9954 19.3043V24C15.1721 24 17.2261 23.4139 18.9954 22.3925Z" fill="#0F993E"/>
<path d="M5.69102 12C5.69102 10.6702 6.05392 9.42607 6.67741 8.3509L2.60838 6.00555C1.58139 7.76932 0.995361 9.81766 0.995361 12C0.995361 14.1823 1.58139 16.2306 2.60838 17.9944L6.67741 15.6491C6.05392 14.5739 5.69102 13.3298 5.69102 12Z" fill="#FFD500"/>
<path d="M12.9954 4.69566C14.7546 4.69566 16.3706 5.32078 17.6328 6.36061C17.9442 6.61711 18.3968 6.59859 18.682 6.31336L20.8978 4.09758C21.2214 3.77395 21.1983 3.24422 20.8526 2.94431C18.7379 1.10967 15.9863 0 12.9954 0C8.55816 0 4.67907 2.41673 2.60837 6.00558L6.6774 8.35092C7.94232 6.16969 10.2975 4.69566 12.9954 4.69566Z" fill="#FF4B26"/>
<path d="M17.6328 6.36061C17.9442 6.61711 18.3968 6.59859 18.682 6.31336L20.8978 4.09758C21.2214 3.77395 21.1983 3.24422 20.8526 2.94431C18.7379 1.10963 15.9863 0 12.9954 0V4.69566C14.7546 4.69566 16.3706 5.32078 17.6328 6.36061Z" fill="#D93F21"/>
</svg>
