<svg width="24" height="24" viewBox="0 0 24 24" fill="none" xmlns="http://www.w3.org/2000/svg">
<path d="M1.56521 1.66625C-0.315007 3.61924 0.0698086 5.69385 0.0698086 11.9964C0.0698086 17.2303 -0.843381 22.4772 3.93591 23.7124C5.42831 24.0962 18.6516 24.0962 20.142 23.7104C22.1319 23.197 23.7509 21.5829 23.9722 18.7686C24.0031 18.3758 24.0031 5.62406 23.9712 5.2233C23.736 2.22553 21.8906 0.497844 19.4591 0.147921C18.9018 0.0671697 18.7902 0.0432434 15.931 0.0382587C5.7892 0.0432434 3.56605 -0.408367 1.56521 1.66625Z" fill="url(#paint0_linear_35_835)"/>
<path d="M12.031 3.16764C8.41113 3.16764 4.97371 2.84564 3.66075 6.21526C3.11842 7.60698 3.19718 9.41442 3.19718 12.0024C3.19718 14.2735 3.12441 16.4079 3.66075 17.7886C4.97072 21.1603 8.43605 20.8373 12.029 20.8373C15.4953 20.8373 19.0693 21.1981 20.3982 17.7886C20.9416 16.383 20.8618 14.6024 20.8618 12.0024C20.8618 8.55107 21.0522 6.32293 19.3784 4.65008C17.6836 2.9553 15.3916 3.16764 12.027 3.16764H12.031ZM11.2394 4.75974C18.7902 4.74778 19.7512 3.90837 19.2209 15.5695C19.0324 19.6938 15.8921 19.2412 12.032 19.2412C4.99365 19.2412 4.79127 19.0398 4.79127 11.9985C4.79127 4.87539 5.34956 4.76373 11.2394 4.75775V4.75974ZM16.7465 6.22623C16.4654 6.22623 16.1959 6.33788 15.9971 6.53662C15.7984 6.73536 15.6867 7.00491 15.6867 7.28597C15.6867 7.56703 15.7984 7.83658 15.9971 8.03532C16.1959 8.23405 16.4654 8.34571 16.7465 8.34571C17.0275 8.34571 17.2971 8.23405 17.4958 8.03532C17.6946 7.83658 17.8062 7.56703 17.8062 7.28597C17.8062 7.00491 17.6946 6.73536 17.4958 6.53662C17.2971 6.33788 17.0275 6.22623 16.7465 6.22623ZM12.031 7.46542C11.4352 7.46548 10.8453 7.58289 10.295 7.81093C9.7446 8.03897 9.24453 8.37319 8.82332 8.79449C7.97265 9.64535 7.49482 10.7993 7.49495 12.0024C7.49508 13.2056 7.97317 14.3594 8.82403 15.2101C9.67488 16.0608 10.8288 16.5386 12.032 16.5385C13.2351 16.5384 14.389 16.0603 15.2397 15.2094C16.0903 14.3586 16.5682 13.2046 16.568 12.0015C16.5679 10.7983 16.0898 9.64446 15.2389 8.79378C14.3881 7.94311 13.2342 7.46528 12.031 7.46542ZM12.031 9.05751C15.924 9.05751 15.929 14.9474 12.031 14.9474C8.13897 14.9474 8.13299 9.05751 12.031 9.05751Z" fill="white"/>
<defs>
<linearGradient id="paint0_linear_35_835" x1="1.61108" y1="22.4364" x2="23.8481" y2="3.19053" gradientUnits="userSpaceOnUse">
<stop stop-color="#FFDD55"/>
<stop offset="0.5" stop-color="#FF543E"/>
<stop offset="1" stop-color="#C837AB"/>
</linearGradient>
</defs>
</svg>
