<svg height="512" width="512" xmlns="http://www.w3.org/2000/svg" viewBox="0 0 512 512"><title>padlock</title><g class="nc-icon-wrapper"><g id="XMLID_1209_"><g id="XMLID_1210_"><g id="XMLID_1211_"><g id="XMLID_1212_"><g id="XMLID_1213_"><g id="XMLID_1214_"><g id="XMLID_1215_"><g id="XMLID_1296_"><g id="XMLID_1297_"><g id="XMLID_1298_"><g id="XMLID_1299_"><g id="XMLID_1301_"><g id="XMLID_1302_"><g id="XMLID_1303_"><circle cx="256" cy="256" fill="#7343dd" r="256" id="XMLID_1304_"></circle></g></g></g></g></g></g></g></g></g></g></g></g></g></g><path d="M512 256c0-1.33-.03-2.652-.05-3.977L332.055 72.129S200 24 185 143s-50.474 283.974-50.474 283.974l82.329 82.049A257.87 257.87 0 0 0 256 512c141.385 0 256-114.615 256-256z" fill="#552cb7"></path><path d="M358.184 213.015h-40.609v-72.722c0-33.952-27.622-61.574-61.575-61.574s-61.575 27.622-61.575 61.574v72.722h-40.609v-72.722c0-56.344 45.84-102.184 102.184-102.184s102.184 45.839 102.184 102.184z" fill="#f4f2ef"></path><path d="M358.18 140.29v72.73h-40.61v-72.73c0-33.95-27.62-61.57-61.57-61.57V38.11c56.34 0 102.18 45.84 102.18 102.18z" fill="#e5e1dc"></path><path d="M330.412 446H181.588c-37.401 0-67.721-30.32-67.721-67.721V208.706h284.266v169.573c0 37.401-30.32 67.721-67.721 67.721z" fill="#ffc136"></path><path d="M398.13 208.71v169.57c0 37.4-30.32 67.72-67.72 67.72H256V208.71z" fill="#f4a300"></path><path d="M293.446 300.152c0-20.681-16.765-37.446-37.446-37.446s-37.446 16.765-37.446 37.446c0 13.99 7.677 26.179 19.042 32.608v61.93h36.807v-61.93c11.366-6.429 19.043-18.619 19.043-32.608z" fill="#655665"></path><path d="M293.45 300.15c0 13.99-7.68 26.18-19.05 32.61v61.93H256V262.71c20.68 0 37.45 16.76 37.45 37.44z" fill="#493e49"></path></g></svg>