<svg width="24" height="24" viewBox="0 0 24 24" fill="none" xmlns="http://www.w3.org/2000/svg">
<path d="M12 24C18.6274 24 24 18.6274 24 12C24 5.37258 18.6274 0 12 0C5.37258 0 0 5.37258 0 12C0 18.6274 5.37258 24 12 24Z" fill="#7343DD"/>
<path d="M24 12C24 11.9377 23.9986 11.8757 23.9977 11.8136L15.5651 3.38106C15.5651 3.38106 9.375 1.12502 8.67188 6.70314C7.96875 12.2813 6.30591 20.0144 6.30591 20.0144L10.1651 23.8605C10.7633 23.9523 11.376 24 12 24C18.6274 24 24 18.6274 24 12Z" fill="#552CB7"/>
<path d="M16.7899 9.9851H14.8863V6.57625C14.8863 4.98475 13.5915 3.68997 12 3.68997C10.4084 3.68997 9.11366 4.98475 9.11366 6.57625V9.9851H7.21011V6.57625C7.21011 3.93513 9.35886 1.78638 12 1.78638C14.6411 1.78638 16.7899 3.93508 16.7899 6.57625V9.9851Z" fill="#F4F2EF"/>
<path d="M16.7897 6.57612V9.98534H14.8861V6.57612C14.8861 4.98472 13.5914 3.69003 12 3.69003V1.78644C14.6409 1.78644 16.7897 3.93519 16.7897 6.57612Z" fill="#E5E1DC"/>
<path d="M15.4881 20.9062H8.51193C6.75876 20.9062 5.33751 19.485 5.33751 17.7318V9.78308H18.6625V17.7318C18.6625 19.485 17.2412 20.9062 15.4881 20.9062Z" fill="#FFC136"/>
<path d="M18.6623 9.78333V17.7319C18.6623 19.485 17.2411 20.9063 15.488 20.9063H12V9.78333H18.6623Z" fill="#F4A300"/>
<path d="M13.7553 14.0696C13.7553 13.1002 12.9694 12.3143 12 12.3143C11.0306 12.3143 10.2447 13.1002 10.2447 14.0696C10.2447 14.7254 10.6046 15.2968 11.1373 15.5981V18.5011H12.8626V15.5981C13.3954 15.2968 13.7553 14.7253 13.7553 14.0696Z" fill="#655665"/>
<path d="M13.7555 14.0696C13.7555 14.7254 13.3955 15.2968 12.8625 15.5982V18.5011H12V12.3146C12.9694 12.3146 13.7555 13.1002 13.7555 14.0696Z" fill="#493E49"/>
</svg>
