<svg xmlns="http://www.w3.org/2000/svg" enable-background="new 0 0 512 512" height="512" width="512" viewBox="0 0 512 512"><title>purse</title><g class="nc-icon-wrapper"><linearGradient id="SVGID_1_" gradientUnits="userSpaceOnUse" x1="262.399" y1="468.969" x2="259.689" y2="389.513" gradientTransform="matrix(1.0039 0 0 -1.0039 .192 516.562)"><stop offset="0" stop-color="#FFB92D"></stop><stop offset="1" stop-color="#F59500"></stop></linearGradient><path d="M451.284 469.456H60.716c-20.816 0-37.691-16.875-37.691-37.691v-325.22c0-20.816 16.875-37.691 37.691-37.691h390.568c20.816 0 37.691 16.875 37.691 37.691v325.22c0 20.816-16.875 37.691-37.691 37.691z" fill="url(#SVGID_1_)"></path><linearGradient id="SVGID_2_" gradientUnits="userSpaceOnUse" x1="275.392" y1="416.213" x2="268.012" y2="355.343" gradientTransform="matrix(1.0039 0 0 -1.0039 .192 516.562)"><stop offset="0" stop-color="#FFB92D"></stop><stop offset="1" stop-color="#F59500"></stop></linearGradient><path d="M442.574 460.522H69.426c-19.888 0-36.011-16.123-36.011-36.011V113.797c0-19.888 16.122-36.011 36.011-36.011h373.147c19.888 0 36.011 16.122 36.011 36.011v310.715c.001 19.888-16.122 36.01-36.01 36.01z" fill="url(#SVGID_2_)"></path><linearGradient id="SVGID_3_" gradientUnits="userSpaceOnUse" x1="251.99" y1="414.413" x2="251.99" y2="368.043" gradientTransform="matrix(1.0039 0 0 -1.0039 .192 516.562)"><stop offset="0" stop-color="#A7F3CE"></stop><stop offset="1" stop-color="#61DB99"></stop></linearGradient><path d="M463.721 174.051L369.776 11.335C363.519.496 349.658-3.218 338.819 3.041L42.621 174.051h421.1z" fill="url(#SVGID_3_)"></path><linearGradient id="SVGID_4_" gradientUnits="userSpaceOnUse" x1="254.809" y1="334.143" x2="254.809" y2="204.023" gradientTransform="matrix(1.0039 0 0 -1.0039 .192 516.562)"><stop offset="0" stop-color="#FF4C54"></stop><stop offset="1" stop-color="#BE3F45"></stop></linearGradient><path d="M23.025 305.009h465.95V181.597c0-15.577-12.627-28.204-28.204-28.204H51.229c-15.577 0-28.204 12.627-28.204 28.204v123.412z" fill="url(#SVGID_4_)"></path><linearGradient id="SVGID_5_" gradientUnits="userSpaceOnUse" x1="254.809" y1="237.523" x2="254.809" y2="36.563" gradientTransform="matrix(1.0039 0 0 -1.0039 .192 516.562)"><stop offset="0" stop-color="#FF4C54"></stop><stop offset="1" stop-color="#BE3F45"></stop></linearGradient><path d="M23.025 258.595v173.17c0 20.816 16.875 37.692 37.692 37.692h390.567c20.816 0 37.691-16.875 37.691-37.691V258.595c0-12.857-10.423-23.28-23.28-23.28H46.305c-12.857 0-23.28 10.422-23.28 23.28z" fill="url(#SVGID_5_)"></path><linearGradient id="SVGID_6_" gradientUnits="userSpaceOnUse" x1="460.479" y1="196.424" x2="426.619" y2="196.424" gradientTransform="matrix(1.0039 0 0 -1.0039 .192 516.562)"><stop offset="0" stop-color="#BE3F45" stop-opacity="0"></stop><stop offset="1" stop-color="#BE3F45"></stop></linearGradient><path d="M418.679 169.277v300.181h32.605c20.816 0 37.691-16.875 37.691-37.691V239.573l-70.296-70.296z" fill="url(#SVGID_6_)"></path><linearGradient id="SVGID_7_" gradientUnits="userSpaceOnUse" x1="157.653" y1="231.185" x2="329.903" y2="151.729" gradientTransform="matrix(1.0039 0 0 -1.0039 .192 516.562)"><stop offset="0" stop-color="#FFB92D"></stop><stop offset="1" stop-color="#F59500"></stop></linearGradient><path d="M386.897 511.717L59.81 473.729c-20.968-2.436-36.785-20.195-36.785-41.304v-328.69a13.914 13.914 0 0 0 12.308 13.821l361.157 41.946c20.968 2.436 36.785 20.195 36.785 41.304v269.608c0 24.865-21.679 44.173-46.378 41.303z" fill="url(#SVGID_7_)"></path><linearGradient id="SVGID_8_" gradientUnits="userSpaceOnUse" x1="221.581" y1="54.273" x2="214.46" y2="-.147" gradientTransform="matrix(1.0039 0 0 -1.0039 .192 516.562)"><stop offset="0" stop-color="#BE3F45" stop-opacity="0"></stop><stop offset="1" stop-color="#BE3F45"></stop></linearGradient><path d="M386.897 446.063L59.81 408.075c-20.968-2.436-36.785-20.195-36.785-41.304v65.654c0 21.109 15.817 38.869 36.785 41.304l327.087 37.988c24.699 2.869 46.379-16.438 46.379-41.304v-65.654c-.001 24.866-21.68 44.172-46.379 41.304z" fill="url(#SVGID_8_)"></path><linearGradient id="SVGID_9_" gradientUnits="userSpaceOnUse" x1="44.49" y1="376.824" x2="44.49" y2="28.814" gradientTransform="matrix(1.0039 0 0 -1.0039 .192 516.562)"><stop offset="0" stop-color="#FFF465"></stop><stop offset="1" stop-color="#FFE600"></stop></linearGradient><path d="M52.35 154.966c-.274 0-.552-.016-.831-.046l-14.968-1.646a7.529 7.529 0 1 1 1.644-14.968l14.968 1.646a7.529 7.529 0 0 1-.813 15.014z" fill="url(#SVGID_9_)"></path><linearGradient id="SVGID_10_" gradientUnits="userSpaceOnUse" x1="244.542" y1="376.813" x2="244.542" y2="29.533" gradientTransform="matrix(1.0039 0 0 -1.0039 .192 516.562)"><stop offset="0" stop-color="#FFF465"></stop><stop offset="1" stop-color="#FFE600"></stop></linearGradient><path d="M359.915 486.911c-.316 0-.638-.021-.96-.061l-29.091-3.699a7.53 7.53 0 0 1-6.519-8.42c.525-4.124 4.294-7.027 8.42-6.519l29.091 3.699a7.529 7.529 0 0 1-.941 15zm28.634-3.727a7.529 7.529 0 0 1-6.816-4.323 7.527 7.527 0 0 1 3.602-10.019c7.639-3.6 13.384-9.57 15.763-16.382a7.534 7.534 0 0 1 9.591-4.626 7.53 7.53 0 0 1 4.626 9.591c-3.757 10.758-12.124 19.651-23.562 25.039a7.506 7.506 0 0 1-3.204.72zm-86.815-3.671c-.316 0-.638-.021-.96-.061l-29.091-3.699a7.529 7.529 0 0 1-6.519-8.42c.525-4.124 4.294-7.028 8.42-6.519l29.091 3.699a7.529 7.529 0 0 1-.941 15zm-58.181-7.399a7.82 7.82 0 0 1-.96-.061l-29.091-3.699a7.529 7.529 0 1 1 1.901-14.939l29.091 3.699a7.529 7.529 0 0 1-.941 15zm-58.183-7.399a7.82 7.82 0 0 1-.96-.061l-29.092-3.7a7.529 7.529 0 0 1-6.519-8.42c.525-4.125 4.296-7.029 8.42-6.519l29.092 3.7a7.529 7.529 0 0 1 6.519 8.42 7.53 7.53 0 0 1-7.46 6.58zm-58.181-7.399a7.82 7.82 0 0 1-.96-.061l-29.092-3.7a7.529 7.529 0 0 1-6.519-8.42c.525-4.125 4.296-7.03 8.42-6.519l29.092 3.7a7.53 7.53 0 1 1-.941 15zm282.707-23.975a7.528 7.528 0 0 1-7.529-7.529v-29.325a7.528 7.528 0 0 1 7.529-7.529 7.528 7.528 0 0 1 7.529 7.529v29.325a7.527 7.527 0 0 1-7.529 7.529zm0-58.649a7.528 7.528 0 0 1-7.529-7.529v-29.325a7.528 7.528 0 0 1 7.529-7.529 7.528 7.528 0 0 1 7.529 7.529v29.325a7.527 7.527 0 0 1-7.529 7.529zm0-58.65a7.528 7.528 0 0 1-7.529-7.529v-29.325a7.528 7.528 0 0 1 7.529-7.529 7.528 7.528 0 0 1 7.529 7.529v29.325a7.527 7.527 0 0 1-7.529 7.529zm0-58.65a7.528 7.528 0 0 1-7.529-7.529v-29.325a7.528 7.528 0 0 1 7.529-7.529 7.528 7.528 0 0 1 7.529 7.529v29.325a7.527 7.527 0 0 1-7.529 7.529zm-10.53-55.645a7.504 7.504 0 0 1-5.177-2.064c-5.581-5.288-13.326-8.657-21.811-9.488l-.199-.021a7.528 7.528 0 0 1-6.68-8.292 7.527 7.527 0 0 1 8.292-6.68l.128.014c11.727 1.149 22.629 5.959 30.628 13.536a7.53 7.53 0 0 1-5.181 12.995zm-55.523-14.734c-.274 0-.552-.016-.831-.046l-29.149-3.205a7.53 7.53 0 0 1-6.662-8.306c.455-4.133 4.176-7.108 8.306-6.662l29.149 3.205a7.53 7.53 0 0 1-.813 15.014zm-58.297-6.41c-.274 0-.552-.016-.831-.046l-29.15-3.205a7.53 7.53 0 0 1-6.662-8.306c.454-4.134 4.181-7.112 8.306-6.662l29.15 3.205a7.53 7.53 0 0 1-.813 15.014zm-58.3-6.409c-.274 0-.552-.016-.831-.046l-29.149-3.205a7.53 7.53 0 0 1 1.644-14.968l29.149 3.205a7.53 7.53 0 0 1-.813 15.014zm-58.299-6.409c-.274 0-.552-.016-.831-.046l-29.149-3.205a7.529 7.529 0 1 1 1.644-14.968l29.149 3.205a7.53 7.53 0 0 1-.813 15.014zm-58.299-6.41c-.274 0-.552-.016-.831-.046l-29.149-3.205a7.53 7.53 0 0 1-6.662-8.306c.455-4.132 4.171-7.108 8.306-6.662l29.149 3.205a7.529 7.529 0 0 1-.813 15.014z" fill="url(#SVGID_10_)"></path><linearGradient id="SVGID_11_" gradientUnits="userSpaceOnUse" x1="61.026" y1="376.833" x2="61.026" y2="28.833" gradientTransform="matrix(1.0039 0 0 -1.0039 .192 516.562)"><stop offset="0" stop-color="#FFF465"></stop><stop offset="1" stop-color="#FFE600"></stop></linearGradient><path d="M68.937 449.907c-.316 0-.636-.02-.959-.061l-14.939-1.899a7.53 7.53 0 0 1 1.899-14.939l14.939 1.899a7.529 7.529 0 0 1 6.52 8.419 7.533 7.533 0 0 1-7.46 6.581z" fill="url(#SVGID_11_)"></path><path d="M345.568 56.068L297.38 82.29c-6.277 3.415-14.134 1.096-17.55-5.181-3.415-6.277-1.096-14.134 5.181-17.55L333.2 33.338c6.277-3.415 14.134-1.096 17.55 5.181 3.415 6.276 1.096 14.134-5.182 17.549z" fill="#61DB99"></path><linearGradient id="SVGID_12_" gradientUnits="userSpaceOnUse" x1="405.748" y1="125.843" x2="302.708" y2="228.883" gradientTransform="matrix(1.0039 0 0 -1.0039 .192 516.562)"><stop offset="0" stop-color="#BE3F45" stop-opacity="0"></stop><stop offset="1" stop-color="#BE3F45"></stop></linearGradient><path d="M433.275 363.821L385.454 316c-6.747-7.347-16.429-11.955-27.19-11.955-20.386 0-36.912 16.527-36.912 36.912 0 10.761 4.608 20.444 11.955 27.19l99.969 99.969V363.821z" fill="url(#SVGID_12_)"></path><linearGradient id="SVGID_13_" gradientUnits="userSpaceOnUse" x1="356.669" y1="198.003" x2="356.669" y2="144.833" gradientTransform="matrix(1.0039 0 0 -1.0039 .192 516.562)"><stop offset="0" stop-color="#FF4C54"></stop><stop offset="1" stop-color="#BE3F45"></stop></linearGradient><circle cx="358.26" cy="340.952" r="36.912" fill="url(#SVGID_13_)"></circle><linearGradient id="SVGID_14_" gradientUnits="userSpaceOnUse" x1="356.669" y1="158.993" x2="356.669" y2="195.683" gradientTransform="matrix(1.0039 0 0 -1.0039 .192 516.562)"><stop offset="0" stop-color="#FF4C54"></stop><stop offset="1" stop-color="#BE3F45"></stop></linearGradient><circle cx="358.26" cy="340.952" r="25.474" fill="url(#SVGID_14_)"></circle><linearGradient id="SVGID_15_" gradientUnits="userSpaceOnUse" x1="297.264" y1="404.334" x2="307.764" y2="357.964" gradientTransform="matrix(1.0039 0 0 -1.0039 .192 516.562)"><stop offset="0" stop-color="#A7F3CE"></stop><stop offset="1" stop-color="#61DB99"></stop></linearGradient><circle cx="348.582" cy="331.275" r="5.271" fill="url(#SVGID_15_)"></circle><linearGradient id="SVGID_16_" gradientUnits="userSpaceOnUse" x1="316.545" y1="404.331" x2="327.045" y2="357.961" gradientTransform="matrix(1.0039 0 0 -1.0039 .192 516.562)"><stop offset="0" stop-color="#A7F3CE"></stop><stop offset="1" stop-color="#61DB99"></stop></linearGradient><circle cx="367.938" cy="331.275" r="5.271" fill="url(#SVGID_16_)"></circle><linearGradient id="SVGID_17_" gradientUnits="userSpaceOnUse" x1="293.109" y1="403.393" x2="303.609" y2="357.023" gradientTransform="matrix(1.0039 0 0 -1.0039 .192 516.562)"><stop offset="0" stop-color="#A7F3CE"></stop><stop offset="1" stop-color="#61DB99"></stop></linearGradient><circle cx="348.582" cy="350.64" r="5.271" fill="url(#SVGID_17_)"></circle><linearGradient id="SVGID_18_" gradientUnits="userSpaceOnUse" x1="312.39" y1="403.39" x2="322.89" y2="357.021" gradientTransform="matrix(1.0039 0 0 -1.0039 .192 516.562)"><stop offset="0" stop-color="#A7F3CE"></stop><stop offset="1" stop-color="#61DB99"></stop></linearGradient><circle cx="367.938" cy="350.64" r="5.271" fill="url(#SVGID_18_)"></circle></g></svg>