<svg height="512" width="512" xmlns="http://www.w3.org/2000/svg" data-name="Layer 1" viewBox="0 0 512 512"><title>random (1)</title><g fill="#000000" class="nc-icon-wrapper"><path d="M504.714 356.347a24 24 0 0 1 0 34.445l-56.261 54.6a24 24 0 0 1-33.429-34.446l13.785-13.378H360.3c-78.062 0-141.57-63.507-141.57-141.569a93.674 93.674 0 0 0-93.569-93.569H24a24 24 0 0 1 0-48h101.164c78.062 0 141.569 63.507 141.569 141.569a93.675 93.675 0 0 0 93.57 93.569h68.506l-13.785-13.378a24 24 0 0 1 33.429-34.445zM295.647 181.954a23.889 23.889 0 0 0 13.244-4 92.753 92.753 0 0 1 51.412-15.52h68.506l-13.785 13.378a24 24 0 0 0 33.429 34.445l56.261-54.6a24 24 0 0 0 0-34.445l-56.261-54.6a24 24 0 0 0-33.429 34.446l13.785 13.378H360.3a140.6 140.6 0 0 0-77.94 23.514 24 24 0 0 0 13.287 44zm-119.07 152.094a92.759 92.759 0 0 1-51.413 15.521H24a24 24 0 0 0 0 48h101.164a140.606 140.606 0 0 0 77.942-23.519 24 24 0 0 0-26.529-40z"></path></g></svg>