<svg height="512" width="512" xmlns="http://www.w3.org/2000/svg" viewBox="0 0 512 512"><title>search</title><g class="nc-icon-wrapper"><path d="M350.741 427.664H66.606c-17.069 0-30.905-13.837-30.905-30.905V30.905C35.7 13.837 49.537 0 66.606 0h284.136c17.069 0 30.905 13.837 30.905 30.905v365.853c0 17.069-13.837 30.906-30.906 30.906z" fill="#f7f6f7"></path><path d="M350.741 0h-30.905c17.069 0 30.905 13.837 30.905 30.905v365.853c0 17.069-13.837 30.905-30.905 30.905h30.905c17.069 0 30.905-13.837 30.905-30.905V30.905C381.647 13.837 367.81 0 350.741 0z" fill="#edebed"></path><path d="M377.046 512H30.905C13.837 512 0 498.163 0 481.095V216.338c0-17.069 13.837-30.905 30.905-30.905h150.759c12.291 0 23.004 8.365 25.985 20.288l5.308 21.234c2.981 11.924 13.694 20.288 25.985 20.288h138.103c17.069 0 30.905 13.837 30.905 30.905v202.946c.002 17.069-13.835 30.906-30.904 30.906z" fill="#ffe07d"></path><g fill="#ffd064"><path d="M377.046 247.243h-30.905c17.069 0 30.905 13.837 30.905 30.905v202.946c0 17.069-13.837 30.905-30.905 30.905h30.905c17.069 0 30.905-13.837 30.905-30.905V278.149c.001-17.069-13.836-30.906-30.905-30.906z"></path><path d="M176.744 205.721l5.308 21.234c2.981 11.924 13.694 20.288 25.985 20.288h30.905c-12.291 0-23.004-8.365-25.985-20.288l-5.308-21.234c-2.981-11.924-13.694-20.288-25.985-20.288h-30.905c12.291 0 23.004 8.364 25.985 20.288z"></path></g><path d="M314.057 54.085H90.297a7.726 7.726 0 1 1 0-15.452h223.76c4.268 0 7.726 3.459 7.726 7.726s-3.458 7.726-7.726 7.726z" fill="#a198a4"></path><path d="M267.699 100.443H90.297a7.726 7.726 0 1 1 0-15.452h177.402a7.725 7.725 0 0 1 7.726 7.726 7.725 7.725 0 0 1-7.726 7.726z" fill="#a198a4"></path><path d="M252.246 146.801H90.297a7.726 7.726 0 1 1 0-15.452h161.949a7.726 7.726 0 1 1 0 15.452z" fill="#a198a4"></path><path d="M318.551 236.809h40.051v84.181h-40.051z" fill="#a198a4" transform="rotate(-150 338.582 278.902)"></path><path d="M240.943 448.007c16.614 9.592 37.858 3.9 47.45-12.714l61.498-106.518c4.062-7.036 1.651-16.032-5.384-20.094l-34.685-20.025c-7.036-4.062-16.032-1.651-20.094 5.384L228.23 400.558c-9.593 16.613-3.901 37.857 12.713 47.449z" fill="#655e68"></path><path d="M344.506 308.681l-34.685-20.026c-7.036-4.062-16.032-1.651-20.094 5.384l-.371.643 24.245 13.998c7.036 4.062 9.446 13.059 5.384 20.094l-61.498 106.518a34.562 34.562 0 0 1-14.624 13.737c16.297 8.112 36.303 2.244 45.529-13.737l61.498-106.518c4.063-7.035 1.652-16.032-5.384-20.093z" fill="#544f57"></path><g><path d="M319.573 271.765a131.04 131.04 0 0 0 34.654 20.08l22.738-39.384-34.685-20.025z" fill="#8b808e"></path><ellipse cx="401.61" cy="169.723" fill="#a4ccff" rx="110.39" ry="110.39" transform="rotate(-66.6 401.438 169.688)"></ellipse><path d="M401.61 59.333c-5.244 0-10.401.376-15.453 1.087 53.579 7.539 94.937 53.678 94.937 109.304 0 55.625-41.358 101.764-94.937 109.303a110.791 110.791 0 0 0 15.453 1.087c60.869 0 110.39-49.521 110.39-110.39 0-60.87-49.521-110.391-110.39-110.391z" fill="#8bb3ea"></path><ellipse cx="401.61" cy="169.723" fill="#e6ecf8" rx="68.252" ry="68.251" transform="rotate(-13.94 400.858 169.484)"></ellipse><path d="M401.61 101.472c-5.316 0-10.484.631-15.453 1.786 30.212 7.023 52.799 34.147 52.799 66.466 0 32.318-22.587 59.442-52.799 66.465a68.158 68.158 0 0 0 15.453 1.786c37.634 0 68.251-30.617 68.251-68.251 0-37.635-30.617-68.252-68.251-68.252z" fill="#d7e1f3"></path></g></g></svg>