<svg width="24" height="24" viewBox="0 0 24 24" fill="none" xmlns="http://www.w3.org/2000/svg">
<g clip-path="url(#clip0_50_1791)">
<path d="M16.441 20.0467H3.12216C2.32206 20.0467 1.67349 19.3981 1.67349 18.5981V1.44867C1.67345 0.648609 2.32206 0 3.12216 0H16.441C17.2411 0 17.8897 0.648609 17.8897 1.44867V18.598C17.8897 19.3981 17.2411 20.0467 16.441 20.0467Z" fill="#F7F6F7"/>
<path d="M16.441 0H14.9923C15.7924 0 16.441 0.648609 16.441 1.44867V18.598C16.441 19.3981 15.7924 20.0467 14.9923 20.0467H16.441C17.2411 20.0467 17.8897 19.3981 17.8897 18.598V1.44867C17.8897 0.648609 17.2411 0 16.441 0Z" fill="#EDEBED"/>
<path d="M17.674 24H1.44867C0.648609 24 0 23.3514 0 22.5514V10.1409C0 9.34076 0.648609 8.6922 1.44867 8.6922H8.5155C9.09164 8.6922 9.59381 9.08431 9.73355 9.6432L9.98236 10.6385C10.1221 11.1975 10.6243 11.5895 11.2004 11.5895H17.674C18.4741 11.5895 19.1227 12.2382 19.1227 13.0382V22.5513C19.1228 23.3514 18.4741 24 17.674 24Z" fill="#FFE07D"/>
<path d="M17.674 11.5895H16.2254C17.0255 11.5895 17.674 12.2381 17.674 13.0382V22.5513C17.674 23.3514 17.0254 24 16.2254 24H17.674C18.4742 24 19.1227 23.3514 19.1227 22.5513V13.0383C19.1228 12.2381 18.4742 11.5895 17.674 11.5895Z" fill="#FFD064"/>
<path d="M8.28488 9.6432L8.53369 10.6385C8.67343 11.1975 9.1756 11.5895 9.75174 11.5895H11.2004C10.6243 11.5895 10.1221 11.1974 9.98236 10.6385L9.73355 9.6432C9.59382 9.08426 9.09165 8.6922 8.51551 8.6922H7.06683C7.64297 8.6922 8.14515 9.08426 8.28488 9.6432Z" fill="#FFD064"/>
<path d="M14.7214 2.53523H4.23267C4.13662 2.53523 4.0445 2.49707 3.97659 2.42915C3.90867 2.36123 3.87051 2.26912 3.87051 2.17307C3.87051 2.07702 3.90867 1.9849 3.97659 1.91699C4.0445 1.84907 4.13662 1.81091 4.23267 1.81091H14.7214C14.9215 1.81091 15.0836 1.97305 15.0836 2.17307C15.0836 2.37309 14.9215 2.53523 14.7214 2.53523Z" fill="#A198A4"/>
<path d="M12.5484 4.70826H4.23267C4.13662 4.70826 4.0445 4.6701 3.97659 4.60219C3.90867 4.53427 3.87051 4.44215 3.87051 4.3461C3.87051 4.25005 3.90867 4.15794 3.97659 4.09002C4.0445 4.0221 4.13662 3.98395 4.23267 3.98395H12.5484C12.596 3.98394 12.643 3.99331 12.687 4.0115C12.7309 4.0297 12.7709 4.05638 12.8045 4.09001C12.8381 4.12364 12.8648 4.16356 12.883 4.20751C12.9012 4.25145 12.9106 4.29854 12.9105 4.3461C12.9106 4.39367 12.9012 4.44076 12.883 4.4847C12.8648 4.52864 12.8381 4.56857 12.8045 4.6022C12.7709 4.63583 12.7309 4.66251 12.687 4.68071C12.643 4.6989 12.596 4.70827 12.5484 4.70826Z" fill="#A198A4"/>
<path d="M11.824 6.88129H4.23267C4.13662 6.88129 4.0445 6.84314 3.97659 6.77522C3.90867 6.7073 3.87051 6.61519 3.87051 6.51914C3.87051 6.42309 3.90867 6.33097 3.97659 6.26306C4.0445 6.19514 4.13662 6.15698 4.23267 6.15698H11.824C11.9201 6.15698 12.0122 6.19514 12.0801 6.26306C12.148 6.33097 12.1862 6.42309 12.1862 6.51914C12.1862 6.61519 12.148 6.7073 12.0801 6.77522C12.0122 6.84314 11.9201 6.88129 11.824 6.88129Z" fill="#A198A4"/>
<path d="M15.6976 15.2518L14.0718 14.3131L16.0448 10.8958L17.6706 11.8344L15.6976 15.2518Z" fill="#A198A4"/>
<path d="M11.2942 21.0003C12.073 21.4499 13.0688 21.1831 13.5184 20.4043L16.4011 15.4113C16.5915 15.0815 16.4785 14.6598 16.1488 14.4694L14.5229 13.5307C14.1931 13.3403 13.7714 13.4533 13.581 13.7831L10.6983 18.7761C10.2486 19.5549 10.5154 20.5507 11.2942 21.0003Z" fill="#655E68"/>
<path d="M16.1487 14.4694L14.5229 13.5307C14.1931 13.3403 13.7714 13.4533 13.581 13.7831L13.5636 13.8132L14.7001 14.4694C15.0299 14.6598 15.1428 15.0815 14.9524 15.4113L12.0697 20.4043C11.9099 20.682 11.6714 20.9061 11.3842 21.0483C12.1481 21.4285 13.0859 21.1534 13.5184 20.4043L16.4011 15.4113C16.5916 15.0815 16.4785 14.6598 16.1487 14.4694Z" fill="#544F57"/>
<path d="M14.98 12.739C15.47 13.1341 16.0179 13.4516 16.6044 13.6802L17.6702 11.8341L16.0444 10.8954L14.98 12.739Z" fill="#8B808E"/>
<path d="M23.5711 10.0025C24.706 7.37968 23.4999 4.33343 20.8772 3.19845C18.2544 2.06348 15.2081 3.26957 14.0732 5.89235C12.9382 8.51512 14.1443 11.5614 16.767 12.6964C19.3898 13.8313 22.4361 12.6252 23.5711 10.0025Z" fill="#A4CCFF"/>
<path d="M18.8255 2.78125C18.5797 2.78125 18.3379 2.79887 18.1011 2.8322C20.6126 3.18559 22.5513 5.34836 22.5513 7.95583C22.5513 10.5633 20.6126 12.726 18.1011 13.0794C18.3411 13.1133 18.5831 13.1303 18.8255 13.1304C21.6787 13.1304 24 10.8091 24 7.95583C24 5.10255 21.6787 2.78125 18.8255 2.78125Z" fill="#8BB3EA"/>
<path d="M19.5978 11.052C21.3127 10.6263 22.3578 8.89105 21.9322 7.17619C21.5065 5.46132 19.7713 4.41621 18.0564 4.84188C16.3415 5.26754 15.2964 7.00279 15.722 8.71765C16.1477 10.4325 17.8829 11.4776 19.5978 11.052Z" fill="#E6ECF8"/>
<path d="M18.8255 4.75647C18.5763 4.75647 18.334 4.78605 18.1011 4.84019C19.5173 5.16939 20.5761 6.44083 20.5761 7.95578C20.5761 9.47069 19.5173 10.7421 18.1011 11.0713C18.3386 11.1268 18.5816 11.1549 18.8255 11.155C20.5896 11.155 22.0247 9.71988 22.0247 7.95578C22.0247 6.19164 20.5896 4.75647 18.8255 4.75647Z" fill="#D7E1F3"/>
</g>
<defs>
<clipPath id="clip0_50_1791">
<rect width="24" height="24" fill="white"/>
</clipPath>
</defs>
</svg>
