<svg height="512" width="512" xmlns="http://www.w3.org/2000/svg" viewBox="0 0 512 512"><title>social media</title><g class="nc-icon-wrapper"><path d="M512 256c0 141.385-114.615 256-256 256S0 397.385 0 256 114.615 0 256 0s256 114.615 256 256z" fill="#ffc14f"></path><path d="M450 185v120c0 8.284-6.716 15-15 15H315c-8.284 0-15-6.716-15-15V185c0-8.284 6.716-15 15-15h120c8.284 0 15 6.716 15 15zm-290 50V115c0-8.284-6.716-15-15-15H53.006C33.731 125.044 18.987 153.757 10 184.91V235c0 8.284 6.716 15 15 15h120c8.284 0 15-6.716 15-15zm25 35H65c-8.284 0-15 6.716-15 15v120c0 1.242.151 2.448.436 3.602 2.439 3.28 4.955 6.5 7.545 9.657A14.932 14.932 0 0 0 65 420h120c8.284 0 15-6.716 15-15V285c0-8.284-6.716-15-15-15z" fill="#ffb52d"></path><path d="M336 504.5H176c-16.569 0-30-13.431-30-30v-370c0-16.569 13.431-30 30-30h160c16.569 0 30 13.431 30 30v370c0 16.569-13.431 30-30 30z" fill="#60c8dd"></path><path d="M215.83 504.5H176c-16.569 0-30-13.431-30-30v-370c0-16.569 13.431-30 30-30h39.83c-16.569 0-30 13.431-30 30v370c0 16.569 13.431 30 30 30z" fill="#2cb3cd"></path><path d="M228.036 377.793H184.14c-5.523 0-10-4.477-10-10v-43.896c0-5.523 4.477-10 10-10h43.896c5.523 0 10 4.477 10 10v43.896c0 5.522-4.477 10-10 10zm91.964-10v-43.896c0-5.523-4.477-10-10-10h-43.896c-5.523 0-10 4.477-10 10v43.896c0 5.523 4.477 10 10 10H310c5.523 0 10-4.478 10-10zm-81.964 86.103V410c0-5.523-4.477-10-10-10H184.14c-5.523 0-10 4.477-10 10v43.896c0 5.523 4.477 10 10 10h43.896c5.523 0 10-4.477 10-10zm81.964 0V410c0-5.523-4.477-10-10-10h-43.896c-5.523 0-10 4.477-10 10v43.896c0 5.523 4.477 10 10 10H310c5.523 0 10-4.477 10-10zm-81.964-170V240c0-5.523-4.477-10-10-10H184.14c-5.523 0-10 4.477-10 10v43.896c0 5.523 4.477 10 10 10h43.896c5.523 0 10-4.477 10-10zm0-80V160c0-5.523-4.477-10-10-10H184.14c-5.523 0-10 4.477-10 10v43.896c0 5.523 4.477 10 10 10h43.896c5.523 0 10-4.477 10-10zM340 110c0-5.523-4.477-10-10-10h-43.896c-5.523 0-10 4.477-10 10s4.477 10 10 10H330c5.523 0 10-4.477 10-10zm-20 173.896V240c0-5.523-4.477-10-10-10h-43.896c-5.523 0-10 4.477-10 10v43.896c0 5.523 4.477 10 10 10H310c5.523 0 10-4.477 10-10z" fill="#a6e0ec"></path><path d="M336 67H176c-20.678 0-37.5 16.822-37.5 37.5v370c0 20.678 16.822 37.5 37.5 37.5h160c20.678 0 37.5-16.822 37.5-37.5v-370c0-20.678-16.822-37.5-37.5-37.5zm22.5 407.5c0 12.406-10.094 22.5-22.5 22.5H176c-12.406 0-22.5-10.094-22.5-22.5v-370c0-12.406 10.094-22.5 22.5-22.5h160c12.406 0 22.5 10.094 22.5 22.5z" fill="#0a3575"></path><path d="M90 209.5H54.5c-8.284 0-15-6.716-15-15v-150c0-8.284 6.716-15 15-15H90c8.284 0 15 6.716 15 15v150c0 8.284-6.716 15-15 15z" fill="#c2eaf2"></path><path d="M204.5 209.5H81.824c-8.284 0-15-6.716-15-15v-150c0-8.284 6.716-15 15-15H204.5c8.284 0 15 6.716 15 15v150c0 8.284-6.716 15-15 15z" fill="#def4f8"></path><path d="M291.362 280H265c-8.284 0-15-6.716-15-15V145c0-8.284 6.716-15 15-15h26.362c8.284 0 15 6.716 15 15v120c0 8.284-6.716 15-15 15z" fill="#ffe1aa"></path><path d="M385 280h-95.83c-8.284 0-15-6.716-15-15V145c0-8.284 6.716-15 15-15H385c8.284 0 15 6.716 15 15v120c0 8.284-6.716 15-15 15z" fill="#fffac1"></path><path d="M215 390H95c-8.284 0-15-6.716-15-15V255c0-8.284 6.716-15 15-15h120c8.284 0 15 6.716 15 15v120c0 8.284-6.716 15-15 15z" fill="#0956c6"></path><path d="M117.702 390H95c-8.284 0-15-6.716-15-15V255c0-8.284 6.716-15 15-15h22.702c-8.284 0-15 6.716-15 15v120c0 8.284 6.716 15 15 15z" fill="#0a4499"></path><path d="M425 450H305c-8.284 0-15-6.716-15-15V315c0-8.284 6.716-15 15-15h120c8.284 0 15 6.716 15 15v120c0 8.284-6.716 15-15 15z" fill="#fb5858"></path><path d="M331.042 450H305c-8.284 0-15-6.716-15-15V315c0-8.284 6.716-15 15-15h26.042c-8.284 0-15 6.716-15 15v120c0 8.284 6.716 15 15 15z" fill="#f44545"></path><path d="M161.32 151.32c-17.574 17.574-46.066 17.574-63.64 0s-17.574-46.066 0-63.64 46.066-17.574 63.64 0 17.573 46.066 0 63.64z" fill="#0956c6"></path><path d="M179.5 134.5h-100c-8.284 0-15-6.716-15-15 0-8.284 6.716-15 15-15h100c8.284 0 15 6.716 15 15 0 8.284-6.716 15-15 15z" fill="#44bfd7"></path><path d="M370 189v15c0 27.614-22.386 50-50 50s-50-22.386-50-50h50v-15c0-13.807 11.193-25 25-25s25 11.193 25 25z" fill="#ffc14f"></path><path d="M382.046 194.492a7.5 7.5 0 0 1-10.606 10.607l-8.485-8.485a7.476 7.476 0 0 1-2.196-5.337 7.474 7.474 0 0 1 2.196-5.337l8.485-8.485a7.5 7.5 0 0 1 10.606 10.607l-3.216 3.216z" fill="#fb5858"></path><path d="M345.407 338.644l50.771 33.79c1.832 1.22 1.832 3.911 0 5.131l-50.771 33.79c-2.048 1.363-4.789-.105-4.789-2.566v-67.58c0-2.459 2.741-3.928 4.789-2.565zM200 290v30c0 5.523-4.477 10-10 10h-11v26.343c0 3.563-4.309 5.348-6.828 2.828L143 330h-23c-5.523 0-10-4.477-10-10v-30c0-5.523 4.477-10 10-10h70c5.523 0 10 4.477 10 10z" fill="#fff"></path></g></svg>