<svg width="25" height="24" viewBox="0 0 25 24" fill="none" xmlns="http://www.w3.org/2000/svg">
<path d="M12.9952 0C6.36781 0 0.995239 5.37257 0.995239 12C0.995239 18.6274 6.36781 24 12.9952 24C19.6227 24 24.9952 18.6274 24.9952 12C24.9952 5.37257 19.6227 0 12.9952 0ZM18.2178 17.4153C18.0652 17.6764 17.7906 17.8219 17.5086 17.822C17.3633 17.822 17.2206 17.7832 17.0953 17.7097C14.9389 16.4495 12.4477 16.247 10.7371 16.299C8.84233 16.3566 7.45279 16.7307 7.43898 16.7345C7.0022 16.8538 6.55082 16.5968 6.431 16.16C6.31124 15.7234 6.56738 15.2723 7.00394 15.152C7.06657 15.1348 8.56184 14.7286 10.6412 14.6601C11.8659 14.6196 13.045 14.705 14.1452 14.9137C15.5387 15.178 16.8098 15.642 17.9233 16.2928C18.3147 16.5215 18.4464 17.0241 18.2178 17.4153ZM19.7434 14.2468C19.5627 14.5561 19.2374 14.7285 18.9033 14.7285C18.7367 14.7285 18.5679 14.6857 18.4137 14.5956C15.8595 13.1028 12.9085 12.863 10.8824 12.9245C8.63788 12.9928 6.99193 13.4359 6.9756 13.4404C6.45834 13.5815 5.92356 13.2773 5.78164 12.76C5.63976 12.2427 5.94321 11.7084 6.4603 11.5659C6.53449 11.5455 8.30565 11.0644 10.7687 10.9832C12.2195 10.9353 13.6162 11.0364 14.9193 11.2836C16.5699 11.5968 18.0756 12.1464 19.3946 12.9172C19.8581 13.188 20.0143 13.7833 19.7434 14.2468ZM20.6812 11.3658C20.4769 11.3658 20.2699 11.3133 20.0807 11.2028C14.0081 7.65381 6.13076 9.76366 6.05191 9.78543C5.41702 9.96036 4.76069 9.5875 4.58582 8.95266C4.41089 8.31783 4.78376 7.66144 5.41859 7.48657C5.50956 7.46149 7.6821 6.87138 10.7032 6.77177C12.483 6.71318 14.196 6.83709 15.7945 7.14031C17.8191 7.5244 19.666 8.19852 21.2839 9.14403C21.8524 9.47627 22.0439 10.2064 21.7117 10.7749C21.49 11.1543 21.0911 11.3658 20.6812 11.3658Z" fill="#00D95F"/>
</svg>
