<svg width="25" height="24" viewBox="0 0 25 24" fill="none" xmlns="http://www.w3.org/2000/svg">
<g clip-path="url(#clip0_35_1568)">
<path d="M16.7845 2.56906C16.7455 2.53934 16.3848 2.27098 15.7422 2.01274C14.9143 1.68003 13.9644 1.50415 12.9952 1.50415C12.0259 1.50415 11.0761 1.68003 10.2481 2.01274C9.60554 2.27098 9.24479 2.53934 9.20579 2.5691C9.10927 2.64271 9.03103 2.73761 8.97718 2.8464C8.92332 2.95519 8.8953 3.07495 8.89529 3.19634V4.43388L9.68406 4.85576L10.4729 4.43388V3.64301C10.9058 3.42209 11.7715 3.08168 12.9951 3.08168C14.2188 3.08168 15.0845 3.42209 15.5174 3.64301V4.43384L16.3061 4.85571L17.095 4.43384V3.19634C17.095 3.07494 17.067 2.95517 17.0131 2.84636C16.9593 2.73756 16.881 2.64266 16.7845 2.56906Z" fill="#E8834D"/>
<path d="M8.89536 4.4339V5.30484L9.68417 5.72671L10.473 5.30484V4.4339H8.89536Z" fill="#D66E41"/>
<path d="M17.0951 4.4339H15.5175V5.30484L16.3063 5.72671L17.0951 5.30484V4.4339Z" fill="#D66E41"/>
<path d="M1.6163 13.9822V20.9896C1.6163 21.8215 2.29069 22.4959 3.12258 22.4959H22.8681C23.7 22.4959 24.3744 21.8215 24.3744 20.9896V13.9822H1.6163Z" fill="#365E7D"/>
<path d="M1.6163 13.1113V13.9822C2.86768 14.9758 6.17499 16.9046 12.9953 16.9046C19.8157 16.9046 23.123 14.9758 24.3744 13.9822V13.1112H1.6163V13.1113Z" fill="#2B4D66"/>
<path d="M1.55092 12.6096C2.75022 13.586 6.05294 15.5845 12.9954 15.5845C19.9378 15.5845 23.2405 13.586 24.4398 12.6096C24.7914 12.3234 24.9954 11.4726 24.9954 11.0193V6.81109C24.9954 5.9792 24.321 5.30481 23.4891 5.30481H2.50164C1.66975 5.30481 0.995361 5.9792 0.995361 6.81109V11.0193C0.995361 11.4726 1.19936 12.3234 1.55092 12.6096Z" fill="#407093"/>
<path d="M24.4398 12.1877C23.2405 13.1641 19.9378 15.1626 12.9954 15.1626C6.05294 15.1626 2.75027 13.1641 1.55092 12.1877C1.37734 12.0465 1.23741 11.8683 1.14131 11.6662C1.04521 11.4641 0.995354 11.2431 0.995361 11.0193L0.995361 11.8903C0.995354 12.1141 1.04521 12.3351 1.14131 12.5372C1.23741 12.7393 1.37734 12.9175 1.55092 13.0587C2.75022 14.0351 6.05294 16.0336 12.9954 16.0336C19.9378 16.0336 23.2405 14.0351 24.4398 13.0587C24.6134 12.9175 24.7533 12.7393 24.8494 12.5372C24.9455 12.3351 24.9954 12.1141 24.9954 11.8903V11.0193C24.9954 11.2431 24.9455 11.4641 24.8494 11.6662C24.7533 11.8683 24.6134 12.0465 24.4398 12.1877Z" fill="#365E7D"/>
<path d="M12.9952 17.4832C13.7745 17.4832 14.4062 16.9046 14.4062 15.6504V14.7949C14.4062 14.5176 14.1814 14.2928 13.9041 14.2928H12.0864C11.8091 14.2928 11.5843 14.5177 11.5843 14.7949V15.6505C11.5842 16.9046 12.216 17.4832 12.9952 17.4832Z" fill="#FFE27A"/>
<path d="M12.9952 17.0613C12.216 17.0613 11.5843 16.4296 11.5843 15.6504V16.5214C11.5843 17.3006 12.216 17.9323 12.9952 17.9323C13.7745 17.9323 14.4062 17.3006 14.4062 16.5214V15.6504C14.4062 16.4296 13.7745 17.0613 12.9952 17.0613Z" fill="#F9CF58"/>
</g>
<defs>
<clipPath id="clip0_35_1568">
<rect width="24" height="24" fill="white" transform="translate(0.995361)"/>
</clipPath>
</defs>
</svg>
