<svg width="25" height="24" viewBox="0 0 25 24" fill="none" xmlns="http://www.w3.org/2000/svg">
<path d="M24.5055 6.62879C24.2288 5.60087 23.4182 4.79064 22.3902 4.51382C20.5122 4 12.9997 4 12.9997 4C12.9997 4 5.48747 4 3.60938 4.49427C2.6012 4.77087 1.77081 5.60106 1.49416 6.62879C0.999954 8.50626 0.999954 12.4 0.999954 12.4C0.999954 12.4 0.999954 16.3133 1.49416 18.1713C1.771 19.199 2.58142 20.0094 3.60957 20.2862C5.50725 20.8 12.9999 20.8 12.9999 20.8C12.9999 20.8 20.5122 20.8 22.3902 20.3058C23.4184 20.0291 24.2288 19.2187 24.5057 18.191C24.9999 16.3133 24.9999 12.4197 24.9999 12.4197C24.9999 12.4197 25.0196 8.50621 24.5055 6.62874V6.62879Z" fill="#FF0000"/>
<path d="M10.6078 15.9972L16.8548 12.4L10.6078 8.8028V15.9972Z" fill="white"/>
</svg>
